<svg width="46" height="46" viewBox="0 0 46 46" fill="none" xmlns="http://www.w3.org/2000/svg">
<path d="M12.0312 11.3572C9.64062 10.7858 7.53124 9.92863 5.70312 8.78577C3.3125 11.7858 2.04688 15.5001 2.04688 19.6429H11.1875C11.0469 16.6429 11.4687 13.7858 12.0312 11.3572Z" fill="white"/>
<path d="M11.0469 21.0715H1.90625C1.0625 21.0715 0.5 20.5001 0.5 19.6429C0.5 15.3572 1.90625 11.2143 4.57812 7.92859C5 7.35716 5.84375 7.21429 6.40625 7.64286C8.09374 8.64286 10.0625 9.50003 12.3125 10.0715C12.7344 10.2143 13.0156 10.3572 13.1562 10.7857C13.2969 11.0715 13.4375 11.5 13.2969 11.9286C12.7344 14.3572 12.3125 17.0715 12.3125 19.9286C12.4531 20.3572 11.8906 21.0715 11.0469 21.0715ZM3.45313 18.2144H9.64062C9.78125 16.2143 9.92187 14.2143 10.3437 12.3572C8.79687 11.9286 7.39062 11.3572 6.125 10.6429C4.57813 12.9286 3.59375 15.5001 3.45313 18.2144Z" fill="#1D1D1B"/>
<path d="M11.0469 19.6429H1.90625C1.90625 23.7858 3.3125 27.5001 5.5625 30.5001C7.39062 29.3572 9.5 28.5001 11.8906 27.9287C11.4687 25.3572 11.0469 22.643 11.0469 19.6429Z" fill="white"/>
<path d="M5.70312 31.9286C5.28125 31.9286 4.85937 31.7858 4.57812 31.3572C1.90625 27.9286 0.5 23.9287 0.5 19.6429C0.5 18.7858 1.0625 18.2144 1.90625 18.2144H11.0469C11.8906 18.2144 12.4531 18.7858 12.4531 19.6429C12.4531 22.3572 12.7344 25.2143 13.4375 27.6429C13.5781 28.0715 13.4375 28.3572 13.2969 28.7858C13.1562 29.0715 12.7344 29.3572 12.4531 29.5001C10.2031 30.0715 8.23437 30.9286 6.54687 31.9286C6.12499 31.7858 5.98437 31.9286 5.70312 31.9286ZM3.45313 21.0715C3.73438 23.7858 4.57813 26.3572 6.125 28.6429C7.39062 27.9286 8.9375 27.3572 10.3437 26.9286C9.92187 25.0715 9.78125 23.0715 9.64062 21.0715H3.45313Z" fill="#1D1D1B"/>
<path d="M27.6406 19.6429C27.6406 22.643 27.2187 25.5001 26.6562 27.9287C29.0468 28.5001 31.1562 29.3572 32.9843 30.5001C35.3749 27.5001 36.6406 23.7858 36.6406 19.6429H27.6406Z" fill="white"/>
<path d="M32.9843 31.9286C32.7031 31.9286 32.4218 31.9287 32.2812 31.7858C30.5937 30.7858 28.625 29.9286 26.375 29.3572C25.9531 29.2143 25.6718 29.0715 25.5312 28.6429C25.3906 28.3572 25.25 27.9286 25.3906 27.5001C25.9531 25.0715 26.375 22.3572 26.375 19.5C26.375 18.6429 26.9375 18.0715 27.7812 18.0715H36.9218C37.7656 18.0715 38.3281 18.6429 38.3281 19.5C38.3281 23.7858 36.9218 27.9286 34.25 31.2143C33.8281 31.7858 33.4062 31.9286 32.9843 31.9286ZM28.3437 26.9286C29.8906 27.3572 31.2968 27.9286 32.5625 28.6429C34.1093 26.3572 34.9531 23.7858 35.2343 21.0715H28.9062C28.9062 23.0715 28.625 25.0715 28.3437 26.9286Z" fill="#1D1D1B"/>
<path d="M27.6406 19.6429H36.7812C36.7812 15.5001 35.3749 11.7858 33.1249 8.78577C31.2968 9.92863 29.1874 10.7858 26.7968 11.3572C27.2187 13.7858 27.6406 16.6429 27.6406 19.6429Z" fill="white"/>
<path d="M36.6406 21.0715H27.5C26.6562 21.0715 26.0937 20.5001 26.0937 19.6429C26.0937 16.9286 25.8125 14.0715 25.1093 11.6429C24.9687 11.2143 25.1093 10.9286 25.25 10.5C25.3906 10.2143 25.8125 9.92858 26.0937 9.78572C28.3437 9.21429 30.3124 8.35717 31.9999 7.35717C32.5624 6.9286 33.4062 7.07143 33.8281 7.64286C36.4999 11.0714 37.9062 15.0715 37.9062 19.3572C38.0468 20.3572 37.4843 21.0715 36.6406 21.0715ZM28.9062 18.2144H35.0937C34.8125 15.5001 33.9687 12.9286 32.4218 10.6429C31.1562 11.3572 29.6093 11.9286 28.2031 12.3572C28.625 14.2143 28.9062 16.2143 28.9062 18.2144Z" fill="#1D1D1B"/>
<path d="M11.0469 19.6429C11.0469 22.643 11.4687 25.5001 12.0312 27.9287C14.2812 27.3572 16.6719 27.0715 19.3437 27.0715V19.6429H11.0469Z" fill="white"/>
<path d="M12.0312 29.3572C11.4687 29.3572 10.7656 28.9287 10.625 28.2144C9.92187 25.5001 9.64062 22.6429 9.64062 19.6429C9.64062 18.7858 10.2031 18.2144 11.0469 18.2144H19.3437C20.1875 18.2144 20.75 18.7858 20.75 19.6429V27.0715C20.75 27.9286 20.1875 28.5001 19.3437 28.5001C16.9531 28.5001 14.5625 28.7858 12.4531 29.3572C12.3125 29.3572 12.1719 29.3572 12.0312 29.3572ZM12.4531 21.0715C12.5937 22.7858 12.7344 24.6429 13.0156 26.2143C14.5625 25.9286 16.25 25.6429 17.7969 25.6429V21.0715H12.4531Z" fill="#1D1D1B"/>
<path d="M19.3438 27.0715C21.875 27.0715 24.4063 27.3572 26.6562 27.9287C27.2187 25.5001 27.6406 22.643 27.6406 19.6429H19.3438V27.0715Z" fill="white"/>
<path d="M26.6562 29.3572C26.5156 29.3572 26.375 29.3572 26.375 29.3572C24.125 28.7858 21.875 28.5001 19.4844 28.5001C18.6406 28.5001 18.0781 27.9286 18.0781 27.0715V19.6429C18.0781 18.7858 18.6406 18.2144 19.4844 18.2144H27.7812C28.625 18.2144 29.1875 18.7858 29.1875 19.6429C29.1875 22.6429 28.9062 25.6429 28.2031 28.2144C27.7812 28.9287 27.2187 29.3572 26.6562 29.3572ZM20.75 25.6429C22.4375 25.6429 23.9844 25.9286 25.5312 26.2143C25.8125 24.6429 26.0937 22.7858 26.0937 21.0715H20.6094V25.6429H20.75Z" fill="#1D1D1B"/>
<path d="M19.3438 12.2143V19.6429H27.6406C27.6406 16.6429 27.2187 13.7858 26.6562 11.3572C24.4063 11.9286 21.875 12.2143 19.3438 12.2143Z" fill="white"/>
<path d="M27.6406 21.0715H19.3437C18.5 21.0715 17.9375 20.5001 17.9375 19.643V12.2143C17.9375 11.3572 18.5 10.7858 19.3437 10.7858C21.7344 10.7858 24.125 10.5 26.2344 9.92862C26.9375 9.78576 27.7812 10.2143 27.9219 10.9286C28.625 13.6429 28.9062 16.6429 28.9062 19.5001C29.0469 20.3572 28.3437 21.0715 27.6406 21.0715ZM20.75 18.2144H26.0937C25.9531 16.5001 25.8125 14.6429 25.5312 13.0715C23.9844 13.3572 22.2969 13.6429 20.75 13.6429V18.2144Z" fill="#1D1D1B"/>
<path d="M19.3437 12.2143C16.8125 12.2143 14.2812 11.9286 12.0312 11.3572C11.4687 13.7858 11.0469 16.6429 11.0469 19.6429H19.3437V12.2143Z" fill="white"/>
<path d="M19.3437 21.0715H11.0469C10.2031 21.0715 9.64062 20.5001 9.64062 19.6429C9.64062 16.6429 9.92187 13.6429 10.625 11.0715C10.7656 10.3572 11.6094 9.78576 12.3125 10.0715C14.5625 10.6429 16.8125 10.9286 19.2031 10.9286C20.0469 10.9286 20.6094 11.5001 20.6094 12.3572V19.7858C20.75 20.3572 20.0469 21.0715 19.3437 21.0715ZM12.4531 18.2144H17.9375V13.6429C16.25 13.6429 14.7031 13.3572 13.1562 13.0715C12.7344 14.6429 12.5937 16.3572 12.4531 18.2144Z" fill="#1D1D1B"/>
<path d="M26.6562 11.3572C29.0469 10.7858 31.1562 9.92865 32.9844 8.78579C29.75 4.64292 24.8281 2.07147 19.3438 2.07147C22.4375 1.92861 25.25 5.78576 26.6562 11.3572Z" fill="white"/>
<path d="M26.6562 12.7858C26.0937 12.7858 25.3906 12.3572 25.25 11.6429C23.9844 6.6429 21.5937 3.35715 19.3437 3.35715C18.5 3.35715 17.9375 2.78572 17.9375 1.92858C17.9375 1.07143 18.5 0.5 19.3437 0.5C25.1094 0.5 30.4531 3.2143 34.1094 7.78574C34.3906 8.07146 34.3906 8.50006 34.3906 8.92863C34.25 9.3572 34.1094 9.64289 33.6875 9.9286C31.7187 11.0715 29.4687 12.0715 26.9375 12.6429C26.7969 12.7857 26.6562 12.7858 26.6562 12.7858ZM25.3906 4.6429C26.2344 5.92862 26.9375 7.64291 27.6406 9.64291C28.7656 9.3572 29.8906 8.92859 30.875 8.35716C29.1875 6.64287 27.3594 5.50005 25.3906 4.6429Z" fill="#1D1D1B"/>
<path d="M19.3437 1.92859C13.8594 1.92859 8.9375 4.6429 5.70312 8.64291C7.53125 9.78577 9.64062 10.6429 12.0312 11.2143C13.4375 5.78574 16.1094 1.92859 19.3437 1.92859Z" fill="white"/>
<path d="M12.0312 12.7858C11.8906 12.7858 11.75 12.7858 11.75 12.7858C9.21874 12.2143 6.96874 11.2143 4.99999 10.0715C4.71874 9.92863 4.43749 9.50004 4.29687 9.07147C4.15624 8.64289 4.29687 8.21434 4.57812 7.92862C8.23436 3.35718 13.5781 0.642883 19.3437 0.642883C20.1875 0.642883 20.75 1.21431 20.75 2.07146C20.75 2.9286 20.1875 3.50003 19.3437 3.50003C17.0937 3.50003 14.7031 6.78578 13.4375 11.7858C13.2969 12.3572 12.5937 12.7858 12.0312 12.7858ZM7.81249 8.35718C8.79686 8.78575 9.78124 9.21436 11.0469 9.64293C11.6094 7.64293 12.3125 6.07149 13.2969 4.64292C11.1875 5.50006 9.35936 6.64289 7.81249 8.35718Z" fill="#1D1D1B"/>
<path d="M12.0312 11.3572C14.2812 11.9286 16.6719 12.2143 19.3437 12.2143V1.92859C16.1094 1.92859 13.4375 5.78575 12.0312 11.3572Z" fill="white"/>
<path d="M19.3438 13.6429C16.6719 13.6429 14.1407 13.3572 11.75 12.7858C11.3282 12.6429 11.0469 12.5 10.9063 12.0715C10.7656 11.7858 10.625 11.3572 10.7656 10.9286C12.4531 4.35718 15.6875 0.5 19.4844 0.5C20.3281 0.5 20.8906 1.07143 20.8906 1.92858V12.2143C20.75 12.9286 20.0469 13.6429 19.3438 13.6429ZM13.7188 10.2143C15.125 10.5001 16.3906 10.6429 17.7969 10.6429V3.64288C16.25 4.64289 14.8438 7.07147 13.7188 10.2143Z" fill="#1D1D1B"/>
<path d="M26.6562 11.3571C25.25 5.78571 22.5781 2.07141 19.3438 2.07141V12.3572C21.875 12.2143 24.4063 11.9286 26.6562 11.3571Z" fill="white"/>
<path d="M19.3437 13.6429C18.5 13.6429 17.9375 13.0715 17.9375 12.2143V1.92858C17.9375 1.07143 18.5 0.5 19.3437 0.5C23.1406 0.5 26.375 4.35718 28.0625 10.9286C28.2031 11.3572 28.0625 11.6429 27.9219 12.0715C27.7812 12.3572 27.3594 12.6429 27.0781 12.7858C24.5469 13.3572 21.875 13.6429 19.3437 13.6429ZM20.75 3.78575V10.7858C22.1562 10.7858 23.5625 10.5001 24.8281 10.3572C23.8437 7.07148 22.2969 4.64289 20.75 3.78575Z" fill="#1D1D1B"/>
<path d="M12.0312 27.9286C9.64062 28.5001 7.53125 29.3572 5.70312 30.5001C8.9375 34.6429 13.8594 37.2144 19.3437 37.2144C16.1094 37.2144 13.4375 33.5001 12.0312 27.9286Z" fill="white"/>
<path d="M19.3437 38.643C13.5781 38.643 8.23437 35.9287 4.57813 31.3572C4.29688 31.0715 4.29688 30.643 4.29688 30.2144C4.4375 29.7858 4.57812 29.5001 5 29.2144C6.96875 28.0715 9.21875 27.0715 11.75 26.5001C12.4531 26.3572 13.2969 26.7858 13.4375 27.5001C14.7031 32.5001 17.0937 35.7858 19.3437 35.7858C20.1875 35.7858 20.75 36.3573 20.75 37.2144C20.75 38.0715 20.0469 38.643 19.3437 38.643ZM7.8125 30.9287C9.35937 32.5001 11.1875 33.7858 13.1562 34.643C12.3125 33.3573 11.6094 31.643 10.9062 29.643C9.92186 29.9287 8.79687 30.3572 7.8125 30.9287Z" fill="#1D1D1B"/>
<path d="M19.3438 37.2144C24.8281 37.2144 29.75 34.5001 32.9844 30.5001C31.1562 29.3573 29.0469 28.5001 26.6562 27.9287C25.25 33.5002 22.4375 37.2144 19.3438 37.2144Z" fill="white"/>
<path d="M19.3437 38.643C18.5 38.643 17.9375 38.0716 17.9375 37.2144C17.9375 36.3573 18.5 35.7859 19.3437 35.7859C21.5937 35.7859 23.9844 32.5002 25.25 27.5001C25.3906 26.7859 26.2344 26.2144 26.9375 26.5001C29.4687 27.0716 31.7187 28.0715 33.6875 29.2144C33.9687 29.3573 34.25 29.7859 34.3906 30.2144C34.5312 30.643 34.3906 31.0716 34.1094 31.3573C30.4531 35.9287 25.1094 38.643 19.3437 38.643ZM27.6406 29.643C27.0781 31.643 26.375 33.2144 25.3906 34.643C27.3594 33.7859 29.1875 32.5001 30.7344 30.9287C29.75 30.3573 28.7656 29.9287 27.6406 29.643Z" fill="#1D1D1B"/>
<path d="M12.0312 27.9287C13.4375 33.5001 16.1094 37.2144 19.3437 37.2144V26.9286C16.6719 27.0715 14.2812 27.3572 12.0312 27.9287Z" fill="white"/>
<path d="M19.3438 38.643C15.5469 38.643 12.3125 34.7858 10.625 28.2144C10.4844 27.7858 10.625 27.5001 10.7656 27.0715C10.9063 26.7858 11.3281 26.5001 11.6094 26.3572C14 25.7858 16.6719 25.5001 19.2031 25.5001C20.0469 25.5001 20.6094 26.0715 20.6094 26.9286V37.2144C20.75 38.0715 20.0469 38.643 19.3438 38.643ZM13.7188 28.9287C14.7031 32.0715 16.25 34.5001 17.7969 35.3573V28.3572C16.5313 28.5001 15.125 28.643 13.7188 28.9287Z" fill="#1D1D1B"/>
<path d="M26.6562 27.9287C24.4063 27.3573 22.0156 27.0715 19.3438 27.0715V37.3573C22.4375 37.2144 25.25 33.5001 26.6562 27.9287Z" fill="white"/>
<path d="M19.3437 38.643C18.5 38.643 17.9375 38.0715 17.9375 37.2144V26.9286C17.9375 26.0715 18.5 25.5001 19.3437 25.5001C22.0156 25.5001 24.5469 25.7858 26.9375 26.3572C27.3594 26.5001 27.6406 26.6429 27.7812 27.0715C27.9219 27.3572 28.0625 27.7858 27.9219 28.2144C26.375 34.7858 23.1406 38.643 19.3437 38.643ZM20.75 28.5001V35.5001C22.2969 34.6429 23.8437 32.2144 24.8281 29.0715C23.5625 28.6429 22.1562 28.5001 20.75 28.5001Z" fill="#1D1D1B"/>
<path d="M31.5781 28.9287C27.2188 28.9287 23.5625 25.3572 23.5625 20.7858C23.5625 16.2143 27.0781 12.6429 31.5781 12.6429C35.9375 12.6429 39.5937 16.2143 39.5937 20.7858C39.5937 25.3572 36.0781 28.9287 31.5781 28.9287ZM31.5781 15.6429C28.7656 15.6429 26.375 17.9286 26.375 20.9286C26.375 23.9287 28.625 26.2143 31.5781 26.2143C34.5312 26.2143 36.7812 23.9287 36.7812 20.9286C36.7812 17.9286 34.5312 15.6429 31.5781 15.6429Z" fill="#1D1D1B"/>
<path d="M43.9531 42.5C43.9531 36.7857 41.9843 31.7857 38.8906 28.7857C36.9219 30.6429 34.3906 31.6429 31.7187 31.6429C29.0469 31.6429 26.375 30.5 24.5469 28.7857C21.4531 31.9286 19.4844 36.9286 19.4844 42.5C19.4844 43.0715 19.4844 43.6429 19.4844 44.0714H43.9531C43.9531 43.6429 43.9531 43.0715 43.9531 42.5Z" fill="white"/>
<path d="M43.9531 45.5H19.3437C18.6406 45.5 17.9375 44.9286 17.9375 44.2143C17.9375 43.6429 17.9375 43.0715 17.9375 42.5C17.9375 36.6429 19.9063 31.2143 23.4219 27.7857C23.9844 27.2143 24.8281 27.2143 25.3906 27.7857C27.0781 29.3571 29.3281 30.3572 31.7187 30.3572C34.1094 30.3572 36.2187 29.5 38.0469 27.7857C38.6094 27.2143 39.4531 27.2143 40.0156 27.7857C43.5312 31.3571 45.5 36.6429 45.5 42.5C45.5 43.0715 45.5 43.6429 45.5 44.2143C45.2187 44.9286 44.6562 45.5 43.9531 45.5ZM20.75 42.6429H42.5469V42.5C42.5469 37.9286 41.1406 33.6428 38.75 30.6428C36.6406 32.2143 34.25 33.0714 31.7187 33.0714C29.1875 33.0714 26.6562 32.2143 24.6875 30.6428C22.2969 33.6428 20.8906 37.9286 20.8906 42.5C20.75 42.5 20.75 42.6429 20.75 42.6429Z" fill="#1D1D1B"/>
</svg>
