<svg width="46" height="40" viewBox="0 0 46 40" fill="none" xmlns="http://www.w3.org/2000/svg">
<path d="M41.2977 38.1482H4.70233C3.30155 38.1482 2.25098 37.037 2.25098 35.5555V11.8519C2.25098 10.3704 3.30155 9.25928 4.70233 9.25928H41.2977C42.6985 9.25928 43.749 10.3704 43.749 11.8519V35.5555C43.749 37.037 42.5234 38.1482 41.2977 38.1482Z" fill="white"/>
<path d="M41.2977 40H4.70232C2.42606 40 0.5 37.9629 0.5 35.5555V11.8518C0.5 9.44443 2.42606 7.40741 4.70232 7.40741H41.2977C43.5739 7.40741 45.5 9.44443 45.5 11.8518V35.5555C45.5 37.9629 43.5739 40 41.2977 40ZM4.70232 11.2963C4.35213 11.2963 4.00194 11.6667 4.00194 12.037V35.7407C4.00194 36.1111 4.35213 36.4814 4.70232 36.4814H41.2977C41.6479 36.4814 41.9981 36.1111 41.9981 35.7407V12.037C41.9981 11.6667 41.6479 11.2963 41.2977 11.2963H4.70232Z" fill="#1D1D1B"/>
<path d="M29.7412 1.85187H16.2587V9.44447H29.7412V1.85187Z" fill="white"/>
<path d="M29.7412 11.2963H16.2587C15.2081 11.2963 14.5078 10.5556 14.5078 9.44445V1.85185C14.5078 0.74074 15.2081 0 16.2587 0H29.7412C30.7918 0 31.4922 0.74074 31.4922 1.85185V9.44445C31.4922 10.3704 30.7918 11.2963 29.7412 11.2963ZM18.0097 7.5926H27.9903V3.7037H18.0097V7.5926Z" fill="#1D1D1B"/>
<path d="M11.181 9.4444H7.67908V38.1481H11.181V9.4444Z" fill="#1D1D1B"/>
<path d="M38.321 9.4444H34.8191V38.1481H38.321V9.4444Z" fill="#1D1D1B"/>
</svg>
