<svg width="31" height="33" viewBox="0 0 31 33" fill="none" xmlns="http://www.w3.org/2000/svg">
<path d="M1.83929 2.01196V20.8261H6.25892L10.9464 31.419L10.4107 20.8261H29.2946V2.01196H1.83929Z" fill="white"/>
<path d="M10.9464 33C10.4107 33 10.0089 32.6838 9.74105 32.2095L5.45533 22.4071H1.83928C1.03571 22.4071 0.5 21.7747 0.5 20.8261V2.17001C0.5 1.2214 1.03571 0.588989 1.83928 0.588989H29.2946C30.0982 0.588989 30.6339 1.2214 30.6339 2.17001V20.8261C30.6339 21.7747 30.0982 22.4071 29.2946 22.4071H11.8839L12.2857 31.419C12.2857 32.2095 11.8839 32.8419 11.3482 33C11.2143 33 11.0803 33 10.9464 33ZM3.17857 19.2451H6.25891C6.79462 19.2451 7.1964 19.5613 7.46425 20.0356L9.33928 24.1463L9.20535 20.8261C9.20535 20.3518 9.33926 20.0356 9.60712 19.7194C9.87497 19.4032 10.2768 19.2451 10.5446 19.2451H28.0893V3.75104H3.31251V19.2451H3.17857Z" fill="#1D1D1B"/>
</svg>
