<svg width="46" height="40" viewBox="0 0 46 40" fill="none" xmlns="http://www.w3.org/2000/svg">
<path d="M32.5731 16.6412C35.9407 16.6412 38.6707 13.2235 38.6707 9.0076C38.6707 4.79169 35.9407 1.37402 32.5731 1.37402C29.2056 1.37402 26.4756 4.79169 26.4756 9.0076C26.4756 13.2235 29.2056 16.6412 32.5731 16.6412Z" fill="white"/>
<path d="M32.5732 18.3206C28.5488 18.3206 25.2561 14.1985 25.2561 9.1603C25.2561 4.12213 28.5488 0 32.5732 0C36.5976 0 39.8903 4.12213 39.8903 9.1603C39.8903 14.1985 36.5976 18.3206 32.5732 18.3206ZM32.5732 2.90075C29.8903 2.90075 27.6951 5.64884 27.6951 9.00762C27.6951 12.3664 29.8903 15.1145 32.5732 15.1145C35.2561 15.1145 37.4512 12.3664 37.4512 9.00762C37.4512 5.64884 35.2561 2.90075 32.5732 2.90075Z" fill="#1D1D1B"/>
<path d="M44.0366 34.0458C44.0366 34.6565 44.0366 35.2672 44.0366 35.8779H21.1098C21.1098 35.2672 21.1098 34.6565 21.1098 34.0458C21.1098 30.3817 21.7195 27.0229 22.6951 24.1222C22.8171 24.1222 22.939 24.1222 22.939 24.1222C22.939 24.1222 23.061 24.1222 23.183 24.1222C25.622 23.9695 27.8171 22.9008 29.5244 20.916C29.6464 20.916 29.7683 21.0687 29.7683 21.0687C30.622 21.3741 31.5976 21.5267 32.4512 21.5267C35.0122 21.5267 37.4512 20.3054 39.1586 18.168C42.2073 21.6794 44.0366 27.4809 44.0366 34.0458Z" fill="white"/>
<path d="M44.0366 37.4046H21.1098C20.5 37.4046 19.8903 36.7939 19.8903 36.0306C19.8903 35.4199 19.7683 34.6565 19.7683 34.0458C19.7683 30.3817 20.3781 26.7176 21.4756 23.5115C21.7195 22.9008 22.2073 22.4428 22.8171 22.5955H23.061H23.1829C25.2561 22.5955 27.2073 21.5268 28.7927 19.6947C29.1585 19.2367 29.6464 19.2367 30.1342 19.3894L30.3781 19.542C31.1098 19.8474 31.8415 19.8474 32.6951 19.8474C34.8903 19.8474 36.9634 18.7787 38.6708 16.9466C39.1586 16.3359 39.8903 16.3359 40.3781 16.9466C43.6707 20.9161 45.5 27.1756 45.5 33.8932C45.5 34.5038 45.5 35.1146 45.5 35.8779C45.1342 36.7939 44.6464 37.4046 44.0366 37.4046ZM22.2073 34.3512H42.8171C42.8171 34.1985 42.8171 34.0458 42.8171 34.0458C42.8171 28.7023 41.4756 23.6642 39.1586 20.3054C36.4756 22.7481 33.061 23.6642 29.7683 22.5955C27.939 24.4275 25.7439 25.4962 23.4268 25.6489C22.6951 28.2443 22.2073 31.1451 22.2073 34.0458C22.2073 34.1985 22.2073 34.1985 22.2073 34.3512Z" fill="#1D1D1B"/>
<path d="M13.1829 16.6412C16.5505 16.6412 19.2805 13.2235 19.2805 9.0076C19.2805 4.79169 16.5505 1.37402 13.1829 1.37402C9.81533 1.37402 7.08536 4.79169 7.08536 9.0076C7.08536 13.2235 9.81533 16.6412 13.1829 16.6412Z" fill="white"/>
<path d="M13.1829 18.3206C9.15853 18.3206 5.86584 14.1985 5.86584 9.1603C5.86584 4.12213 9.15853 0 13.1829 0C17.2073 0 20.5 4.12213 20.5 9.1603C20.5 14.1985 17.2073 18.3206 13.1829 18.3206ZM13.1829 2.90075C10.5 2.90075 8.30487 5.64884 8.30487 9.00762C8.30487 12.3664 10.5 15.1145 13.1829 15.1145C15.8658 15.1145 18.061 12.3664 18.061 9.00762C18.061 5.64884 15.8658 2.90075 13.1829 2.90075Z" fill="#1D1D1B"/>
<path d="M24.6463 34.0458C24.6463 34.6565 24.6463 35.2672 24.6463 35.8779H1.71951C1.71951 35.2672 1.71951 34.6565 1.71951 34.0458C1.71951 27.4809 3.54877 21.6794 6.4756 18.168C8.30487 20.3054 10.6219 21.5267 13.1829 21.5267C14.1585 21.5267 15.0122 21.3741 15.8659 21.0687C15.9878 21.0687 15.9878 21.0687 16.1098 20.916C17.8171 22.9008 20.0122 24.1222 22.4512 24.1222C22.5732 24.1222 22.6951 24.1222 22.6951 24.1222C22.6951 24.1222 22.8171 24.1222 22.939 24.1222C24.1585 27.0229 24.6463 30.3817 24.6463 34.0458Z" fill="white"/>
<path d="M24.6464 37.4046H1.71951C1.10976 37.4046 0.5 36.7939 0.5 36.0305C0.5 35.4198 0.5 34.6565 0.5 34.0458C0.5 27.3283 2.32926 21.0687 5.62195 17.0993C6.10975 16.4886 6.84147 16.4886 7.32928 17.0993C9.5244 19.6947 12.8171 20.6107 15.6219 19.542H15.7439C16.1098 19.3893 16.7195 19.3894 17.0854 19.8474C18.6707 21.6794 20.622 22.5954 22.6951 22.7481H22.8171H23.061C23.5488 22.7481 24.1585 23.0535 24.2805 23.6642C25.3781 26.8703 25.9878 30.5344 25.9878 34.1985C25.9878 34.8092 25.9878 35.5725 25.9878 36.1832C25.8659 36.7939 25.2561 37.4046 24.6464 37.4046ZM2.81707 34.3512H23.4268C23.4268 34.1985 23.4268 34.0458 23.4268 34.0458C23.4268 31.1451 23.061 28.2443 22.2073 25.6489C19.8903 25.4962 17.6951 24.4275 15.8659 22.5954C12.5732 23.6641 9.15853 22.7481 6.4756 20.3054C4.15853 23.6641 2.81707 28.7023 2.81707 34.0458C2.81707 34.1985 2.81707 34.1985 2.81707 34.3512Z" fill="#1D1D1B"/>
<path d="M22.8171 19.2367C26.1847 19.2367 28.9146 15.819 28.9146 11.6031C28.9146 7.38721 26.1847 3.96954 22.8171 3.96954C19.4495 3.96954 16.7195 7.38721 16.7195 11.6031C16.7195 15.819 19.4495 19.2367 22.8171 19.2367Z" fill="white"/>
<path d="M22.8171 20.9161C18.7927 20.9161 15.5 16.794 15.5 11.7558C15.5 6.71765 18.7927 2.59552 22.8171 2.59552C26.8415 2.59552 30.1341 6.71765 30.1341 11.7558C30.1341 16.794 26.9634 20.9161 22.8171 20.9161ZM22.8171 5.49627C20.1341 5.49627 17.939 8.24436 17.939 11.6031C17.939 14.9619 20.1341 17.71 22.8171 17.71C25.5 17.71 27.6951 14.9619 27.6951 11.6031C27.8171 8.24436 25.5 5.49627 22.8171 5.49627Z" fill="#1D1D1B"/>
<path d="M34.4025 36.6413C34.4025 37.2519 34.4025 37.8626 34.2805 38.4733H11.3537C11.3537 37.8626 11.3537 37.2519 11.3537 36.6413C11.3537 36.3359 11.3537 36.1832 11.3537 35.8779C11.4756 29.771 13.3049 24.4275 15.9878 20.916L16.1098 20.7634C16.1098 20.7634 16.2317 20.7634 16.2317 20.916C17.939 22.9008 20.1342 24.1222 22.5732 24.1222C22.6951 24.1222 22.8171 24.1222 22.8171 24.1222C22.8171 24.1222 22.939 24.1222 23.061 24.1222C25.5 23.9695 27.6951 22.9008 29.4025 20.916C29.4025 20.916 29.5244 20.916 29.5244 20.7634L29.6464 20.916C32.3293 24.4275 34.0366 29.771 34.2805 35.8779C34.4025 36.1832 34.4025 36.3359 34.4025 36.6413Z" fill="white"/>
<path d="M34.2805 40H11.3537C10.7439 40 10.1342 39.3893 10.1342 38.4733C10.1342 37.8626 10.1342 37.0993 10.1342 36.4886C10.1342 36.1832 10.1342 35.8779 10.1342 35.5725C10.2561 29.313 12.0854 23.5115 15.0122 19.6947C15.0122 19.6947 15.1342 19.542 15.2561 19.3894C15.7439 18.7787 16.4756 18.7787 16.9634 19.3894C18.5488 21.2214 20.5 22.1374 22.5732 22.2901H22.6951H22.939H23.061C25.1342 22.2901 27.0854 21.2214 28.6708 19.3894L28.7927 19.2367C29.0366 18.9313 29.2805 18.9314 29.6464 18.9314C29.8903 18.9314 30.2561 19.084 30.5 19.3894C30.622 19.542 30.7439 19.6947 30.7439 19.6947C33.6708 23.5115 35.5 29.313 35.622 35.4199C35.622 35.7252 35.622 35.8779 35.622 36.1832C35.622 36.7939 35.622 37.5573 35.5 38.168C35.5 39.3894 34.8903 40 34.2805 40ZM12.5732 36.9466H33.1829C33.1829 36.7939 33.1829 36.6413 33.1829 36.6413C33.1829 36.3359 33.1829 36.1832 33.1829 36.0305C33.061 30.9924 31.7195 26.2596 29.5244 22.9008C27.6951 24.5802 25.5 25.6489 23.183 25.6489C22.939 25.6489 22.6951 25.6489 22.4512 25.6489C20.1342 25.4962 17.939 24.5802 16.1098 22.9008C13.9147 26.2596 12.5732 30.8397 12.4512 36.0305C12.4512 36.3359 12.4512 36.4886 12.4512 36.7939C12.5732 36.7939 12.5732 36.9466 12.5732 36.9466Z" fill="#1D1D1B"/>
</svg>
